<svg width="48" height="48" viewBox="0 0 48 48" fill="none" xmlns="http://www.w3.org/2000/svg">
<path d="M28.5441 8.00205H17.456C16.1157 8.00151 14.7883 8.26509 13.5498 8.77772C12.3113 9.29035 11.186 10.042 10.2381 10.9897C9.29023 11.9374 8.53836 13.0626 8.02548 14.301C7.5126 15.5393 7.24875 16.8666 7.24902 18.207V29.295C7.24849 30.6356 7.51213 31.9631 8.02489 33.2017C8.53765 34.4403 9.28948 35.5658 10.2374 36.5137C11.1853 37.4616 12.3107 38.2134 13.5494 38.7262C14.788 39.2389 16.1155 39.5026 17.456 39.502H28.5441C29.8846 39.5026 31.2121 39.2389 32.4507 38.7262C33.6894 38.2134 34.8148 37.4616 35.7627 36.5137C36.7106 35.5658 37.4624 34.4403 37.9752 33.2017C38.488 31.9631 38.7516 30.6356 38.7511 29.295V18.207C38.7516 16.8665 38.488 15.5389 37.9752 14.3003C37.4624 13.0617 36.7106 11.9363 35.7627 10.9884C34.8148 10.0405 33.6894 9.28863 32.4507 8.77587C31.2121 8.26311 29.8846 7.99946 28.5441 8V8.00205Z" stroke="#8C81EF" stroke-width="4"/>
<path d="M38.583 31.102H41.9C42.457 31.102 42.9911 30.8807 43.3849 30.4869C43.7788 30.0931 44 29.5589 44 29.002V18.502C44 17.945 43.7788 17.4109 43.3849 17.0171C42.9911 16.6232 42.457 16.402 41.9 16.402H38.581M7.41902 31.102H4.1C3.82422 31.102 3.55115 31.0477 3.29637 30.9421C3.04158 30.8366 2.81008 30.6819 2.61508 30.4869C2.42007 30.2919 2.26539 30.0604 2.15985 29.8056C2.05432 29.5508 2 29.2778 2 29.002V18.502C2 17.945 2.22125 17.4109 2.61508 17.0171C3.0089 16.6232 3.54305 16.402 4.1 16.402H7.41902" stroke="#8C81EF" stroke-width="4"/>
<path d="M4.0791 16.402V8.00195M41.8996 16.402L41.8791 8.00195M27.1586 21.6509H31.3566M16.6996 19.2354V23.4354M18.7996 30.0509C19.9164 31.1594 21.4261 31.7815 22.9996 31.7815C24.5731 31.7815 26.0828 31.1594 27.1996 30.0509" stroke="#8C81EF" stroke-width="3" stroke-linecap="round" stroke-linejoin="round"/>
</svg>
