<svg width="46" height="51" viewBox="0 0 46 51" fill="none" xmlns="http://www.w3.org/2000/svg">
<path d="M25.2222 23.16H11.8889M16.3333 32.12H11.8889M29.6667 14.2H11.8889M38.5556 22.04V13.752C38.5556 9.98845 38.5556 8.10667 37.8289 6.66918C37.1898 5.40473 36.1699 4.37671 34.9155 3.73244C33.4894 3 31.6226 3 27.8889 3H13.6667C9.93298 3 8.06614 3 6.64006 3.73244C5.38565 4.37671 4.36578 5.40473 3.72662 6.66918C3 8.10667 3 9.98845 3 13.752V37.048C3 40.8116 3 42.6933 3.72662 44.1308C4.36578 45.3953 5.38565 46.4233 6.64006 47.0676C8.06614 47.8 9.93298 47.8 13.6667 47.8H19.6667M43 47.8L39.6667 44.44M41.8889 38.84C41.8889 43.1699 38.4067 46.68 34.1111 46.68C29.8156 46.68 26.3333 43.1699 26.3333 38.84C26.3333 34.5101 29.8156 31 34.1111 31C38.4067 31 41.8889 34.5101 41.8889 38.84Z" stroke="#2DC5B3" stroke-width="4.8" stroke-linecap="round" stroke-linejoin="round"/>
</svg>
