<svg width="32" height="32" viewBox="0 0 32 32" fill="none" xmlns="http://www.w3.org/2000/svg">
<path d="M14.1328 16.9467C14.0079 16.8228 13.9087 16.6753 13.841 16.5128C13.7733 16.3503 13.7384 16.1761 13.7384 16C13.7384 15.824 13.7733 15.6497 13.841 15.4873C13.9087 15.3248 14.0079 15.1773 14.1328 15.0534L20.2528 8.94671C20.3778 8.82276 20.477 8.67529 20.5447 8.51281C20.6124 8.35033 20.6472 8.17606 20.6472 8.00004C20.6472 7.82402 20.6124 7.64975 20.5447 7.48727C20.477 7.32479 20.3778 7.17732 20.2528 7.05337C20.003 6.80504 19.6651 6.66565 19.3128 6.66565C18.9606 6.66565 18.6226 6.80504 18.3728 7.05337L12.2528 13.1734C11.5038 13.9234 11.083 14.94 11.083 16C11.083 17.06 11.5038 18.0767 12.2528 18.8267L18.3728 24.9467C18.6212 25.193 18.9564 25.3319 19.3062 25.3334C19.4816 25.3344 19.6556 25.3008 19.818 25.2344C19.9805 25.168 20.1282 25.0703 20.2528 24.9467C20.3778 24.8228 20.477 24.6753 20.5447 24.5128C20.6124 24.3503 20.6472 24.1761 20.6472 24C20.6472 23.824 20.6124 23.6497 20.5447 23.4873C20.477 23.3248 20.3778 23.1773 20.2528 23.0534L14.1328 16.9467Z" fill="#4F4F4F"/>
</svg>
