<svg width="48" height="48" viewBox="0 0 48 48" fill="none" xmlns="http://www.w3.org/2000/svg">
<path d="M42.0498 24.342L39.7933 23.0003L42.0518 21.6587C43.6199 20.7638 44.8343 19.3947 45.5044 17.766C45.9239 16.6891 46.0802 15.5342 45.9614 14.3902C45.8426 13.2462 45.4517 12.1436 44.819 11.1674C44.1862 10.1912 43.3284 9.36751 42.3117 8.75967C41.295 8.15184 40.1465 7.77612 38.9546 7.66148C37.1362 7.51871 35.3199 7.95961 33.7908 8.91496L32.99 9.39221V7.99689C33.0238 6.05103 32.307 4.16187 30.9774 2.69256C29.6479 1.22325 27.7994 0.277489 25.7873 0.0370933C24.6776 -0.0680699 23.5571 0.0509791 22.4982 0.386577C21.4393 0.722174 20.4653 1.26688 19.6389 1.98564C18.8126 2.70439 18.1522 3.58126 17.7003 4.5598C17.2484 5.53834 17.015 6.59687 17.0151 7.66723V9.39221L16.2164 8.91305C14.6876 7.955 12.8703 7.51202 11.0505 7.65381C9.85842 7.76745 8.70948 8.1423 7.69222 8.74947C6.67496 9.35664 5.81654 10.1799 5.18314 11.1558C4.54974 12.1317 4.15828 13.2342 4.03893 14.3783C3.91958 15.5223 4.07553 16.6774 4.49477 17.7545C5.16499 19.3837 6.38016 20.753 7.94934 21.6472L10.2118 23.0003L7.95333 24.342C6.3852 25.2369 5.17086 26.606 4.50076 28.2347C4.0807 29.3124 3.9243 30.4683 4.04361 31.6133C4.16293 32.7582 4.55477 33.8615 5.18889 34.838C5.82302 35.8145 6.68246 36.6381 7.70086 37.2452C8.71927 37.8522 9.86939 38.2265 11.0625 38.3392C12.8769 38.4815 14.6893 38.0427 16.2164 37.0915L17.0151 36.6085V38.3334C17.0151 40.3667 17.8566 42.3168 19.3546 43.7545C20.8525 45.1923 22.8842 46 25.0026 46C27.121 46 29.1526 45.1923 30.6505 43.7545C32.1485 42.3168 32.99 40.3667 32.99 38.3334V36.6085L33.7888 37.0895C35.3149 38.0415 37.1265 38.4816 38.9407 38.3411C40.1334 38.2279 41.283 37.8532 42.301 37.2459C43.3189 36.6386 44.1778 35.815 44.8115 34.8386C45.4452 33.8621 45.8367 32.759 45.9558 31.6143C46.0749 30.4697 45.9184 29.314 45.4984 28.2366C44.8294 26.6079 43.6166 25.2382 42.0498 24.342ZM41.4288 32.8097C40.8922 33.6361 40.0356 34.2242 39.0474 34.4445C38.0591 34.6648 37.0202 34.4994 36.159 33.9846L32.0475 31.5275C31.7449 31.3469 31.3974 31.2473 31.0412 31.2391C30.6849 31.2308 30.3329 31.3143 30.0215 31.4807C29.7102 31.6471 29.451 31.8905 29.2707 32.1855C29.0904 32.4805 28.9957 32.8165 28.9963 33.1585V38.3334C28.9963 39.3501 28.5755 40.3251 27.8266 41.044C27.0776 41.7629 26.0618 42.1667 25.0026 42.1667C23.9434 42.1667 22.9275 41.7629 22.1786 41.044C21.4296 40.3251 21.0088 39.3501 21.0088 38.3334V33.1585C21.0087 32.8168 20.9135 32.4813 20.7329 32.1869C20.5523 31.8924 20.293 31.6496 19.9818 31.4836C19.6706 31.3176 19.3189 31.2345 18.963 31.2429C18.6071 31.2513 18.26 31.3509 17.9576 31.5313L13.8461 33.9923C13.4197 34.2471 12.9452 34.4188 12.4496 34.4977C11.9541 34.5765 11.4472 34.5609 10.958 34.4517C10.4687 34.3425 10.0067 34.1419 9.59823 33.8613C9.18976 33.5807 8.84286 33.2257 8.57735 32.8164C8.31184 32.4071 8.13292 31.9517 8.05079 31.4761C7.96866 31.0004 7.98494 30.5139 8.0987 30.0443C8.21246 29.5748 8.42147 29.1313 8.7138 28.7392C9.00612 28.3472 9.37604 28.0142 9.80243 27.7594L15.0442 24.6276C15.3332 24.4557 15.5716 24.2158 15.737 23.9307C15.9024 23.6456 15.9891 23.3247 15.9891 22.9984C15.9891 22.6721 15.9024 22.3512 15.737 22.0661C15.5716 21.781 15.3332 21.5412 15.0442 21.3693L9.80243 18.2394C8.9413 17.7247 8.32845 16.9028 8.0987 15.9544C7.86896 15.006 8.04113 14.0089 8.57735 13.1824C9.11358 12.3558 9.96992 11.7676 10.958 11.5471C11.9461 11.3266 12.9849 11.4918 13.8461 12.0065L17.9576 14.4636C18.2595 14.6438 18.6061 14.7433 18.9615 14.752C19.3169 14.7606 19.6682 14.678 19.9792 14.5127C20.2902 14.3475 20.5496 14.1055 20.7306 13.8118C20.9116 13.5181 21.0077 13.1834 21.0088 12.8422V7.87231C20.9873 6.93919 21.3083 6.02852 21.9158 5.2997C22.5232 4.57088 23.3784 4.07034 24.3316 3.8857C24.9048 3.79194 25.4925 3.81945 26.0535 3.96632C26.6145 4.11318 27.1353 4.37586 27.5795 4.73599C28.0238 5.09613 28.3807 5.54503 28.6254 6.05132C28.8701 6.55762 28.9967 7.1091 28.9963 7.66723V12.8422C28.9967 13.1837 29.0923 13.5189 29.273 13.8131C29.4537 14.1074 29.713 14.3499 30.0242 14.5156C30.3353 14.6814 30.6869 14.7643 31.0427 14.7558C31.3984 14.7474 31.7453 14.6478 32.0475 14.4675L36.159 12.0123C36.5854 11.7574 37.0599 11.5857 37.5555 11.5068C38.051 11.428 38.5579 11.4436 39.0471 11.5528C39.5364 11.662 39.9984 11.8626 40.4069 12.1432C40.8154 12.4238 41.1623 12.7788 41.4278 13.1881C41.6933 13.5974 41.8722 14.0528 41.9543 14.5284C42.0365 15.0041 42.0202 15.4906 41.9064 15.9602C41.7927 16.4298 41.5836 16.8732 41.2913 17.2653C40.999 17.6574 40.6291 17.9903 40.2027 18.2452L34.9609 21.3769C34.672 21.5488 34.4335 21.7887 34.2681 22.0738C34.1028 22.3589 34.016 22.6798 34.016 23.0061C34.016 23.3324 34.1028 23.6533 34.2681 23.9384C34.4335 24.2235 34.672 24.4633 34.9609 24.6352L40.2027 27.767C40.6293 28.0215 40.9995 28.3542 41.2921 28.7462C41.5846 29.1381 41.7938 29.5815 41.9077 30.0511C42.0215 30.5207 42.0379 31.0072 41.9557 31.4829C41.8735 31.9585 41.6945 32.4139 41.4288 32.8231V32.8097Z" fill="#F8C17F"/>
</svg>
