<svg width="48" height="48" viewBox="0 0 48 48" fill="none" xmlns="http://www.w3.org/2000/svg">
<path d="M44 20.2111V35.6682C43.9974 37.8771 43.1185 39.9948 41.5563 41.5568C39.9941 43.1187 37.876 43.9974 35.6667 44H34C33.558 44 33.1341 43.8244 32.8215 43.5119C32.5089 43.1994 32.3333 42.7756 32.3333 42.3336C32.3333 41.8917 32.5089 41.4679 32.8215 41.1553C33.1341 40.8428 33.558 40.6673 34 40.6673H35.6667C36.9928 40.6673 38.2645 40.1406 39.2022 39.2031C40.1399 38.2656 40.6667 36.9941 40.6667 35.6682V20.2111C40.6667 19.3928 40.4658 18.5869 40.0817 17.8644C39.6975 17.1418 39.1418 16.5246 38.4633 16.0668L26.7967 8.19664C25.9723 7.63476 24.9977 7.33423 24 7.33423C23.0023 7.33423 22.0277 7.63476 21.2033 8.19664L9.53667 16.0668C8.85821 16.5246 8.3025 17.1418 7.91834 17.8644C7.53417 18.5869 7.33329 19.3928 7.33334 20.2111V35.6682C7.33334 36.9941 7.86012 38.2656 8.79781 39.2031C9.73549 40.1406 11.0073 40.6673 12.3333 40.6673H14C14.442 40.6673 14.866 40.8428 15.1785 41.1553C15.4911 41.4679 15.6667 41.8917 15.6667 42.3336C15.6667 42.7756 15.4911 43.1994 15.1785 43.5119C14.866 43.8244 14.442 44 14 44H12.3333C10.124 43.9974 8.00594 43.1187 6.44371 41.5568C4.88148 39.9948 4.00265 37.8771 4.00001 35.6682V20.2111C3.9983 18.8475 4.3318 17.5045 4.97118 16.3C5.61056 15.0956 6.5362 14.0668 7.66667 13.304L19.3333 5.43216C20.7088 4.49892 22.3328 4 23.995 4C25.6573 4 27.2812 4.49892 28.6567 5.43216L40.3233 13.304C41.4549 14.0664 42.382 15.0949 43.023 16.2992C43.6641 17.5035 43.9996 18.8468 44 20.2111ZM35.6667 29.0144C35.6709 30.5467 35.3712 32.0645 34.7847 33.4801C34.1982 34.8957 33.3367 36.1809 32.25 37.2612L26.3917 42.9902C25.7503 43.611 24.8927 43.9581 24 43.9581C23.1073 43.9581 22.2497 43.611 21.6083 42.9902L15.7633 37.2746C14.404 35.9197 13.4 34.2505 12.8403 32.4148C12.2806 30.5792 12.1826 28.6338 12.5549 26.7512C12.9272 24.8686 13.7583 23.1069 14.9745 21.6223C16.1908 20.1377 17.7546 18.9761 19.5273 18.2404C21.3001 17.5047 23.227 17.2176 25.1372 17.4047C27.0475 17.5918 28.8821 18.2471 30.4784 19.3128C32.0746 20.3784 33.3833 21.8213 34.2883 23.5136C35.1934 25.206 35.6668 27.0954 35.6667 29.0144ZM32.3333 29.0144C32.3334 27.6443 31.9954 26.2953 31.3495 25.087C30.7035 23.8786 29.7695 22.8482 28.6301 22.0869C27.4907 21.3257 26.1811 20.8571 24.8173 20.7227C23.4535 20.5883 22.0776 20.7923 20.8115 21.3165C19.5454 21.8408 18.4282 22.6691 17.5587 23.7281C16.6893 24.7872 16.0944 26.0443 15.827 27.388C15.5595 28.7318 15.6276 30.1208 16.0252 31.432C16.4229 32.7432 17.1378 33.9361 18.1067 34.905L23.94 40.6073L29.9067 34.8917C30.6794 34.1208 31.2916 33.2046 31.7081 32.1958C32.1247 31.1871 32.3371 30.1058 32.3333 29.0144ZM29 29.0028C29 29.9915 28.7068 30.958 28.1574 31.7801C27.6079 32.6022 26.8271 33.243 25.9134 33.6213C24.9998 33.9997 23.9945 34.0987 23.0246 33.9058C22.0546 33.7129 21.1637 33.2368 20.4645 32.5377C19.7652 31.8385 19.289 30.9478 19.0961 29.9781C18.9032 29.0083 19.0022 28.0032 19.3806 27.0897C19.759 26.1763 20.3999 25.3955 21.2222 24.8462C22.0444 24.2969 23.0111 24.0037 24 24.0037C25.3261 24.0037 26.5979 24.5304 27.5355 25.4679C28.4732 26.4054 29 27.6769 29 29.0028Z" fill="#FFB0B0"/>
</svg>
