<svg width="14" height="9" viewBox="0 0 14 9" fill="none" xmlns="http://www.w3.org/2000/svg">
<path d="M4.73426 8.80525C4.97723 8.9058 5.23765 8.95745 5.50061 8.95724C5.7614 8.95825 6.01982 8.9078 6.26108 8.80879C6.50235 8.70978 6.72171 8.56415 6.90661 8.38025L13.6996 1.67324C13.8717 1.48421 13.9649 1.23645 13.96 0.980845C13.9551 0.725246 13.8525 0.481228 13.6733 0.298929C13.4941 0.11663 13.2518 0.00989445 12.9963 0.000654064C12.7409 -0.00858632 12.4915 0.0803697 12.2996 0.249245L5.49361 6.94924L1.70061 3.24224C1.51098 3.05659 1.25537 2.95388 0.990006 2.95669C0.724642 2.9595 0.471264 3.06762 0.285612 3.25725C0.0999606 3.44688 -0.00275675 3.70249 5.62925e-05 3.96785C0.00286934 4.23322 0.110983 4.48659 0.300613 4.67225L4.08461 8.37124C4.27052 8.55721 4.49129 8.70469 4.73426 8.80525Z" fill="#2DC5B3"/>
</svg>
