<svg width="24" height="24" viewBox="0 0 24 24" fill="none" xmlns="http://www.w3.org/2000/svg">
<path d="M13.6892 15.8036L11.1706 18.3201C10.4394 19.0312 9.45731 19.4261 8.43693 19.4192C7.41655 19.4124 6.43989 19.0044 5.71826 18.2836C4.99662 17.5628 4.58804 16.5871 4.58092 15.5675C4.57379 14.548 4.9687 13.5667 5.68019 12.8358L8.19878 10.317C8.34356 10.1723 8.42485 9.97598 8.42478 9.77134C8.4247 9.5667 8.34327 9.37046 8.1984 9.22581C8.05352 9.08115 7.85706 8.99993 7.65225 9C7.44743 9.00007 7.25103 9.08144 7.10626 9.22619L4.58844 11.745C3.57102 12.7621 2.99964 14.1413 3 15.5793C3.00036 17.0174 3.57243 18.3963 4.59037 19.4129C5.6083 20.4295 6.98871 21.0004 8.42792 21C9.86713 20.9996 11.2472 20.428 12.2647 19.411L14.7833 16.8945C14.9239 16.749 15.0017 16.5541 15 16.3518C14.9982 16.1496 14.917 15.9561 14.7739 15.813C14.6307 15.67 14.437 15.5889 14.2346 15.5871C14.0322 15.5853 13.8371 15.6631 13.6915 15.8036H13.6892Z" fill="#2DC5B3"/>
<path d="M19.4153 4.59019C18.9131 4.08468 18.3156 3.68383 17.6575 3.41087C16.9993 3.13791 16.2934 2.99826 15.5809 3.00002C14.8687 2.99813 14.1632 3.13742 13.5052 3.40983C12.8471 3.68224 12.2497 4.08238 11.7473 4.5871L9.22625 7.10467C9.08146 7.24934 9.00007 7.4456 9 7.65027C8.99993 7.85494 9.08117 8.05126 9.22587 8.19603C9.37056 8.34081 9.56685 8.42218 9.77154 8.42225C9.97624 8.42232 10.1726 8.34109 10.3174 8.19642L12.8368 5.67962C13.1961 5.31826 13.6235 5.03175 14.0942 4.83667C14.565 4.64158 15.0697 4.54181 15.5793 4.54312C16.3466 4.54338 17.0965 4.77106 17.7343 5.1974C18.3722 5.62373 18.8693 6.22958 19.1628 6.93834C19.4563 7.64711 19.5331 8.42697 19.3834 9.17936C19.2337 9.93174 18.8643 10.6229 18.3218 11.1653L15.8047 13.6821C15.6599 13.8269 15.5785 14.0233 15.5785 14.228C15.5785 14.4328 15.6599 14.6291 15.8047 14.7739C15.9494 14.9187 16.1458 15 16.3506 15C16.5554 15 16.7518 14.9187 16.8966 14.7739L19.4137 12.2586C20.4292 11.241 20.9997 9.86228 21 8.42473C21.0003 6.98718 20.4304 5.6082 19.4153 4.59019Z" fill="#2DC5B3"/>
<path d="M13.729 9.21053L9.22897 13.7105C9.15733 13.7797 9.1002 13.8625 9.06089 13.954C9.02158 14.0455 9.00089 14.1439 9.00003 14.2435C8.99916 14.3431 9.01814 14.4418 9.05585 14.534C9.09356 14.6262 9.14925 14.7099 9.21967 14.7803C9.29009 14.8507 9.37383 14.9064 9.466 14.9441C9.55817 14.9819 9.65693 15.0008 9.75652 15C9.8561 14.9991 9.95452 14.9784 10.046 14.9391C10.1375 14.8998 10.2203 14.8427 10.2895 14.771L14.7895 10.271C14.9261 10.1296 15.0017 9.94013 15 9.74348C14.9983 9.54684 14.9194 9.35873 14.7803 9.21967C14.6413 9.08061 14.4532 9.00174 14.2565 9.00003C14.0599 8.99832 13.8704 9.07392 13.729 9.21053Z" fill="#2DC5B3"/>
</svg>
