<svg width="48" height="48" viewBox="0 0 48 48" fill="none" xmlns="http://www.w3.org/2000/svg">
<path d="M24 38C27.7118 37.9958 31.2703 36.5195 33.8949 33.8949C36.5195 31.2703 37.9958 27.7118 38 24V17C38 13.287 36.525 9.72601 33.8995 7.10051C31.274 4.475 27.713 3 24 3C20.287 3 16.726 4.475 14.1005 7.10051C11.475 9.72601 10 13.287 10 17V24C10.0042 27.7118 11.4805 31.2703 14.1051 33.8949C16.7297 36.5195 20.2882 37.9958 24 38ZM24 6.5C26.479 6.5046 28.8765 7.38527 30.7691 8.9864C32.6616 10.5875 33.9273 12.8061 34.3425 15.25H29.25C28.7859 15.25 28.3408 15.4344 28.0126 15.7626C27.6844 16.0908 27.5 16.5359 27.5 17C27.5 17.4641 27.6844 17.9092 28.0126 18.2374C28.3408 18.5656 28.7859 18.75 29.25 18.75H34.5V22.25H29.25C28.7859 22.25 28.3408 22.4344 28.0126 22.7626C27.6844 23.0908 27.5 23.5359 27.5 24C27.5 24.4641 27.6844 24.9092 28.0126 25.2374C28.3408 25.5656 28.7859 25.75 29.25 25.75H34.3425C33.9312 28.1956 32.6666 30.4163 30.7731 32.0179C28.8797 33.6195 26.48 34.4983 24 34.4983C21.52 34.4983 19.1203 33.6195 17.2269 32.0179C15.3334 30.4163 14.0688 28.1956 13.6575 25.75H18.75C19.2141 25.75 19.6592 25.5656 19.9874 25.2374C20.3156 24.9092 20.5 24.4641 20.5 24C20.5 23.5359 20.3156 23.0908 19.9874 22.7626C19.6592 22.4344 19.2141 22.25 18.75 22.25H13.5V18.75H18.75C19.2141 18.75 19.6592 18.5656 19.9874 18.2374C20.3156 17.9092 20.5 17.4641 20.5 17C20.5 16.5359 20.3156 16.0908 19.9874 15.7626C19.6592 15.4344 19.2141 15.25 18.75 15.25H13.6575C14.0727 12.8061 15.3384 10.5875 17.2309 8.9864C19.1235 7.38527 21.521 6.5046 24 6.5Z" fill="#5EB0F0"/>
<path d="M43.25 24C42.7859 24 42.3408 24.1844 42.0126 24.5126C41.6844 24.8408 41.5 25.2859 41.5 25.75C41.4954 29.9257 39.8345 33.9291 36.8818 36.8818C33.9291 39.8345 29.9257 41.4954 25.75 41.5H22.25C18.0744 41.4949 14.0713 39.8339 11.1187 36.8813C8.1661 33.9287 6.50509 29.9256 6.5 25.75C6.5 25.2859 6.31563 24.8408 5.98744 24.5126C5.65925 24.1844 5.21413 24 4.75 24C4.28587 24 3.84075 24.1844 3.51256 24.5126C3.18437 24.8408 3 25.2859 3 25.75C3.00602 30.8536 5.03607 35.7464 8.64484 39.3552C12.2536 42.9639 17.1464 44.994 22.25 45H25.75C30.8536 44.994 35.7464 42.9639 39.3552 39.3552C42.9639 35.7464 44.994 30.8536 45 25.75C45 25.2859 44.8156 24.8408 44.4874 24.5126C44.1592 24.1844 43.7141 24 43.25 24Z" fill="#5EB0F0"/>
</svg>
