<svg width="59" height="69" viewBox="0 0 59 69" fill="none" xmlns="http://www.w3.org/2000/svg">
<path d="M29.5 34.4998C33.0106 34.4998 36.4424 33.4881 39.3614 31.5926C42.2804 29.6972 44.5554 27.0031 45.8989 23.8511C47.2423 20.699 47.5938 17.2306 46.9089 13.8845C46.2241 10.5383 44.5335 7.46463 42.0512 5.05217C39.5688 2.63972 36.406 0.996813 32.9629 0.331218C29.5197 -0.334378 25.9508 0.00723004 22.7074 1.31284C19.464 2.61845 16.6918 4.82943 14.7414 7.66618C12.791 10.5029 11.75 13.838 11.75 17.2498C11.7547 21.8233 13.6263 26.2083 16.954 29.4423C20.2818 32.6763 24.7939 34.4952 29.5 34.4998ZM29.5 5.74976C31.8404 5.74976 34.1283 6.42423 36.0743 7.68786C38.0202 8.9515 39.5369 10.7476 40.4326 12.8489C41.3282 14.9503 41.5626 17.2625 41.106 19.4933C40.6494 21.7241 39.5224 23.7732 37.8674 25.3815C36.2125 26.9898 34.104 28.0851 31.8086 28.5288C29.5131 28.9725 27.1338 28.7448 24.9716 27.8744C22.8093 27.004 20.9612 25.53 19.6609 23.6388C18.3607 21.7477 17.6667 19.5243 17.6667 17.2498C17.6667 14.1998 18.9134 11.2747 21.1326 9.11804C23.3518 6.96137 26.3616 5.74976 29.5 5.74976Z" fill="#F3F3F3"/>
<path d="M29.5001 39.9473C21.8169 39.955 14.4507 42.7122 9.01785 47.6141C3.58497 52.5161 0.529031 59.1623 0.520508 66.0946C0.520508 66.8652 0.859752 67.6041 1.46361 68.149C2.06747 68.6938 2.88648 68.9999 3.74046 68.9999C4.59445 68.9999 5.41346 68.6938 6.01731 68.149C6.62117 67.6041 6.96042 66.8652 6.96042 66.0946C6.96042 60.701 9.33513 55.5282 13.5621 51.7143C17.7891 47.9004 23.5222 45.7578 29.5001 45.7578C35.478 45.7578 41.2111 47.9004 45.4381 51.7143C49.6651 55.5282 52.0398 60.701 52.0398 66.0946C52.0398 66.8652 52.379 67.6041 52.9829 68.149C53.5867 68.6938 54.4058 68.9999 55.2597 68.9999C56.1137 68.9999 56.9327 68.6938 57.5366 68.149C58.1404 67.6041 58.4797 66.8652 58.4797 66.0946C58.4712 59.1623 55.4152 52.5161 49.9824 47.6141C44.5495 42.7122 37.1833 39.955 29.5001 39.9473Z" fill="#F3F3F3"/>
</svg>
