<svg width="12" height="24" viewBox="0 0 12 24" fill="none" xmlns="http://www.w3.org/2000/svg">
<path d="M0.999939 23.9999C0.868332 24.0007 0.73787 23.9754 0.616033 23.9257C0.494195 23.8759 0.383379 23.8026 0.289939 23.7099C0.196211 23.6169 0.121816 23.5063 0.0710478 23.3845C0.0202791 23.2626 -0.00585938 23.1319 -0.00585938 22.9999C-0.00585938 22.8679 0.0202791 22.7372 0.0710478 22.6153C0.121816 22.4935 0.196211 22.3829 0.289939 22.2899L8.45994 14.1199C9.02174 13.5574 9.3373 12.7949 9.3373 11.9999C9.3373 11.2049 9.02174 10.4424 8.45994 9.87993L0.289939 1.70994C0.101635 1.52164 -0.00415277 1.26624 -0.00415277 0.99994C-0.00415277 0.733639 0.101635 0.478244 0.289939 0.289941C0.478243 0.101637 0.733637 -0.00415039 0.999939 -0.00415039C1.26624 -0.00415039 1.52164 0.101637 1.70994 0.289941L9.87994 8.45993C10.3456 8.92439 10.715 9.47614 10.9671 10.0836C11.2191 10.691 11.3489 11.3423 11.3489 11.9999C11.3489 12.6576 11.2191 13.3088 10.9671 13.9163C10.715 14.5237 10.3456 15.0755 9.87994 15.5399L1.70994 23.7099C1.6165 23.8026 1.50568 23.8759 1.38385 23.9257C1.26201 23.9754 1.13155 24.0007 0.999939 23.9999Z" fill="#F3F3F3"/>
</svg>
