<svg width="270" height="49" viewBox="0 0 270 49" fill="none" xmlns="http://www.w3.org/2000/svg">
<path d="M-0.00499999 20.672C-0.00499999 17.708 0.451 15.086 1.363 12.806C2.313 10.526 3.586 8.626 5.182 7.106C6.816 5.548 8.716 4.37 10.882 3.572C13.086 2.774 15.461 2.375 18.007 2.375C20.553 2.375 22.909 2.774 25.075 3.572C27.279 4.37 29.198 5.548 30.832 7.106C32.466 8.626 33.739 10.526 34.651 12.806C35.601 15.086 36.076 17.708 36.076 20.672C36.076 23.636 35.62 26.277 34.708 28.595C33.796 30.875 32.523 32.794 30.889 34.352C29.293 35.872 27.393 37.031 25.189 37.829C22.985 38.627 20.591 39.026 18.007 39.026C15.423 39.026 13.029 38.627 10.825 37.829C8.621 36.993 6.721 35.796 5.125 34.238C3.529 32.68 2.275 30.761 1.363 28.481C0.451 26.201 -0.00499999 23.598 -0.00499999 20.672ZM10.255 20.672C10.255 24.13 10.958 26.714 12.364 28.424C13.77 30.134 15.651 30.989 18.007 30.989C20.401 30.989 22.301 30.134 23.707 28.424C25.113 26.714 25.816 24.13 25.816 20.672C25.816 17.252 25.113 14.687 23.707 12.977C22.339 11.267 20.458 10.412 18.064 10.412C15.708 10.412 13.808 11.267 12.364 12.977C10.958 14.649 10.255 17.214 10.255 20.672ZM51.3484 37.943C50.9304 38.019 50.3034 38.114 49.4674 38.228C48.6694 38.38 47.8524 38.456 47.0164 38.456C46.1804 38.456 45.4204 38.399 44.7364 38.285C44.0904 38.171 43.5394 37.943 43.0834 37.601C42.6274 37.259 42.2664 36.803 42.0004 36.233C41.7724 35.625 41.6584 34.846 41.6584 33.896V0.835999C42.0764 0.759998 42.6844 0.664998 43.4824 0.551C44.3184 0.398999 45.1544 0.322999 45.9904 0.322999C46.8264 0.322999 47.5674 0.379999 48.2134 0.493997C48.8974 0.607998 49.4674 0.835998 49.9234 1.178C50.3794 1.52 50.7214 1.995 50.9494 2.603C51.2154 3.173 51.3484 3.933 51.3484 4.883V37.943ZM56.7113 24.149C56.7113 21.641 57.0913 19.475 57.8513 17.651C58.6113 15.789 59.6563 14.25 60.9863 13.034C62.3543 11.818 63.9313 10.925 65.7173 10.355C67.5413 9.747 69.4983 9.443 71.5883 9.443C72.3483 9.443 73.0893 9.519 73.8113 9.671C74.5333 9.785 75.1223 9.937 75.5783 10.127V0.892999C75.9583 0.778998 76.5663 0.664998 77.4023 0.551C78.2383 0.398999 79.0933 0.322999 79.9673 0.322999C80.8033 0.322999 81.5443 0.379999 82.1903 0.493997C82.8743 0.607998 83.4443 0.835998 83.9003 1.178C84.3563 1.52 84.6983 1.995 84.9263 2.603C85.1543 3.173 85.2683 3.933 85.2683 4.883V31.901C85.2683 33.687 84.4323 35.112 82.7603 36.176C81.6583 36.898 80.2333 37.525 78.4853 38.057C76.7373 38.627 74.7233 38.912 72.4433 38.912C69.9733 38.912 67.7503 38.57 65.7743 37.886C63.8363 37.202 62.1833 36.214 60.8153 34.922C59.4853 33.63 58.4593 32.091 57.7373 30.305C57.0533 28.481 56.7113 26.429 56.7113 24.149ZM72.8993 17.024C70.8473 17.024 69.2703 17.613 68.1683 18.791C67.0663 19.969 66.5153 21.755 66.5153 24.149C66.5153 26.505 67.0283 28.291 68.0543 29.507C69.0803 30.685 70.5623 31.274 72.5003 31.274C73.1843 31.274 73.7923 31.179 74.3243 30.989C74.8943 30.761 75.3313 30.514 75.6353 30.248V17.708C74.8753 17.252 73.9633 17.024 72.8993 17.024ZM107.941 30.932C107.523 29.982 107.067 28.918 106.573 27.74C106.117 26.562 105.623 25.213 105.091 23.693C104.597 22.173 104.065 20.444 103.495 18.506C102.963 16.53 102.393 14.269 101.785 11.723C102.317 11.191 103.02 10.735 103.894 10.355C104.806 9.937 105.794 9.728 106.858 9.728C108.188 9.728 109.29 10.013 110.164 10.583C111.038 11.115 111.684 12.141 112.102 13.661L116.605 29.336H116.833C117.289 28.044 117.726 26.638 118.144 25.118C118.6 23.598 119.037 22.04 119.455 20.444C119.873 18.81 120.253 17.195 120.595 15.599C120.975 13.965 121.298 12.369 121.564 10.811C122.932 10.089 124.433 9.728 126.067 9.728C127.397 9.728 128.499 10.013 129.373 10.583C130.247 11.153 130.684 12.141 130.684 13.547C130.684 14.573 130.551 15.77 130.285 17.138C130.019 18.468 129.658 19.893 129.202 21.413C128.784 22.933 128.271 24.51 127.663 26.144C127.093 27.74 126.485 29.317 125.839 30.875C125.193 32.433 124.528 33.915 123.844 35.321C123.16 36.689 122.495 37.924 121.849 39.026C120.785 40.888 119.797 42.408 118.885 43.586C117.973 44.764 117.099 45.676 116.263 46.322C115.427 47.006 114.591 47.462 113.755 47.69C112.919 47.956 112.045 48.089 111.133 48.089C109.537 48.089 108.245 47.614 107.257 46.664C106.269 45.714 105.68 44.479 105.49 42.959C106.706 42.009 107.922 40.945 109.138 39.767C110.354 38.627 111.456 37.449 112.444 36.233C111.798 36.043 111.095 35.606 110.335 34.922C109.613 34.2 108.815 32.87 107.941 30.932ZM134.479 20.672C134.479 17.708 134.935 15.086 135.847 12.806C136.797 10.526 138.07 8.626 139.666 7.106C141.3 5.548 143.2 4.37 145.366 3.572C147.57 2.774 149.945 2.375 152.491 2.375C155.037 2.375 157.393 2.774 159.559 3.572C161.763 4.37 163.682 5.548 165.316 7.106C166.95 8.626 168.223 10.526 169.135 12.806C170.085 15.086 170.56 17.708 170.56 20.672C170.56 23.636 170.104 26.277 169.192 28.595C168.28 30.875 167.007 32.794 165.373 34.352C163.777 35.872 161.877 37.031 159.673 37.829C157.469 38.627 155.075 39.026 152.491 39.026C149.907 39.026 147.513 38.627 145.309 37.829C143.105 36.993 141.205 35.796 139.609 34.238C138.013 32.68 136.759 30.761 135.847 28.481C134.935 26.201 134.479 23.598 134.479 20.672ZM144.739 20.672C144.739 24.13 145.442 26.714 146.848 28.424C148.254 30.134 150.135 30.989 152.491 30.989C154.885 30.989 156.785 30.134 158.191 28.424C159.597 26.714 160.3 24.13 160.3 20.672C160.3 17.252 159.597 14.687 158.191 12.977C156.823 11.267 154.942 10.412 152.548 10.412C150.192 10.412 148.292 11.267 146.848 12.977C145.442 14.649 144.739 17.214 144.739 20.672ZM175.972 10.697C176.352 10.583 176.941 10.469 177.739 10.355C178.575 10.241 179.43 10.184 180.304 10.184C181.14 10.184 181.881 10.241 182.527 10.355C183.211 10.469 183.781 10.697 184.237 11.039C184.693 11.381 185.035 11.856 185.263 12.464C185.529 13.034 185.662 13.794 185.662 14.744V26.999C185.662 28.557 186.042 29.678 186.802 30.362C187.562 31.008 188.664 31.331 190.108 31.331C190.982 31.331 191.685 31.255 192.217 31.103C192.787 30.951 193.224 30.799 193.528 30.647V10.697C193.908 10.583 194.497 10.469 195.295 10.355C196.131 10.241 196.986 10.184 197.86 10.184C198.696 10.184 199.437 10.241 200.083 10.355C200.767 10.469 201.337 10.697 201.793 11.039C202.249 11.381 202.591 11.856 202.819 12.464C203.085 13.034 203.218 13.794 203.218 14.744V32.072C203.218 33.972 202.42 35.397 200.824 36.347C199.494 37.183 197.898 37.81 196.036 38.228C194.212 38.684 192.217 38.912 190.051 38.912C187.999 38.912 186.099 38.684 184.351 38.228C182.641 37.772 181.159 37.069 179.905 36.119C178.651 35.169 177.682 33.953 176.998 32.471C176.314 30.951 175.972 29.127 175.972 26.999V10.697ZM227.149 20.444C227.149 19.266 226.807 18.411 226.123 17.879C225.477 17.309 224.584 17.024 223.444 17.024C222.684 17.024 221.924 17.119 221.164 17.309C220.442 17.499 219.815 17.784 219.283 18.164V37.943C218.903 38.057 218.295 38.171 217.459 38.285C216.661 38.399 215.825 38.456 214.951 38.456C214.115 38.456 213.355 38.399 212.671 38.285C212.025 38.171 211.474 37.943 211.018 37.601C210.562 37.259 210.201 36.803 209.935 36.233C209.707 35.625 209.593 34.846 209.593 33.896V16.796C209.593 15.77 209.802 14.934 210.22 14.288C210.676 13.642 211.284 13.053 212.044 12.521C213.336 11.609 214.951 10.868 216.889 10.298C218.865 9.728 221.05 9.443 223.444 9.443C227.738 9.443 231.044 10.393 233.362 12.293C235.68 14.155 236.839 16.758 236.839 20.102V37.943C236.459 38.057 235.851 38.171 235.015 38.285C234.217 38.399 233.381 38.456 232.507 38.456C231.671 38.456 230.911 38.399 230.227 38.285C229.581 38.171 229.03 37.943 228.574 37.601C228.118 37.259 227.757 36.803 227.491 36.233C227.263 35.625 227.149 34.846 227.149 33.896V20.444ZM256.779 9.443C258.945 9.443 260.902 9.728 262.65 10.298C264.436 10.83 265.937 11.533 267.153 12.407C267.913 12.939 268.502 13.528 268.92 14.174C269.376 14.82 269.604 15.656 269.604 16.682V36.632C269.604 38.646 269.224 40.375 268.464 41.819C267.704 43.301 266.659 44.517 265.329 45.467C264.037 46.455 262.498 47.177 260.712 47.633C258.964 48.089 257.083 48.317 255.069 48.317C251.611 48.317 248.894 47.842 246.918 46.892C244.942 45.98 243.954 44.479 243.954 42.389C243.954 41.515 244.125 40.736 244.467 40.052C244.847 39.406 245.265 38.912 245.721 38.57C246.823 39.178 248.058 39.691 249.426 40.109C250.832 40.527 252.276 40.736 253.758 40.736C255.81 40.736 257.444 40.394 258.66 39.71C259.876 39.026 260.484 37.924 260.484 36.404V35.492C258.926 36.176 257.026 36.518 254.784 36.518C253.074 36.518 251.44 36.271 249.882 35.777C248.362 35.245 247.013 34.447 245.835 33.383C244.695 32.281 243.764 30.875 243.042 29.165C242.358 27.455 242.016 25.422 242.016 23.066C242.016 20.748 242.377 18.734 243.099 17.024C243.859 15.314 244.885 13.908 246.177 12.806C247.507 11.666 249.065 10.83 250.851 10.298C252.675 9.728 254.651 9.443 256.779 9.443ZM260.313 17.708C260.047 17.556 259.648 17.404 259.116 17.252C258.622 17.1 257.995 17.024 257.235 17.024C255.373 17.024 253.967 17.556 253.017 18.62C252.105 19.646 251.649 21.128 251.649 23.066C251.649 25.27 252.105 26.866 253.017 27.854C253.967 28.804 255.164 29.279 256.608 29.279C258.166 29.279 259.401 28.918 260.313 28.196V17.708Z" fill="currentColor"/>
</svg>
