<svg width="182" height="183" viewBox="0 0 182 183" fill="none" xmlns="http://www.w3.org/2000/svg">
<path d="M46.4477 100.774C46.4477 100.774 42.4587 95.1687 41.1289 93.0615L29.959 98.892L37.4056 108.732L46.4477 100.774Z" stroke="black" stroke-width="4.28864" stroke-linecap="round" stroke-linejoin="round"/>
<path d="M22.7713 56.8349C-9.99389 121.94 49.1975 156.383 87.8095 159.021C108.168 160.412 129.658 163.239 155.095 138.543C182.488 111.948 169.988 28.1353 129.298 10.3544C104.033 -0.686083 55.5364 -8.26989 22.7713 56.8349Z" fill="#F5F5F5" stroke="#CACACA" stroke-opacity="0.15" stroke-width="6"/>
<path d="M46 96L34 103" stroke="#A1A1A1" stroke-width="10" stroke-linecap="round"/>
<circle cx="86.6465" cy="80.126" r="3.19141" fill="black"/>
<circle cx="123.348" cy="86.5088" r="3.19141" fill="black"/>
<path d="M167.295 94.2505C151.87 103.324 149.21 116.324 158.518 121.643C169.156 126.696 177.312 119.339 178.73 117.654C185.644 110.739 176.338 88.9314 167.295 94.2505Z" fill="#D9D9D9" stroke="#878787" stroke-opacity="0.17"/>
<path d="M53.0484 151.209C48.3947 132.46 71.7368 131.934 80.017 134.8C86.179 137.372 88.4385 152.058 88.798 159.08C86.1882 170.457 69.7723 188.943 50.846 175.689C37.7967 166.55 45.8887 157.021 50.7106 153.686C54.0331 151.388 54.3097 156.291 53.0484 151.209Z" fill="#23867A"/>
<path d="M155.21 136.14C150.568 117.388 129.683 127.825 123.699 134.226C119.452 139.378 124.314 153.42 127.275 159.796C134.897 168.638 158.046 177.316 168.591 156.757C175.861 142.582 164.255 137.935 158.434 137.238C154.423 136.758 156.468 141.222 155.21 136.14Z" fill="#23867A"/>
<mask id="path-9-outside-1_86_879" maskUnits="userSpaceOnUse" x="41.2227" y="43.2114" width="69" height="70" fill="black">
<rect fill="white" x="41.2227" y="43.2114" width="69" height="70"/>
<path d="M105.264 78.2639C105.264 94.8614 92.047 108.316 75.7432 108.316C59.4395 108.316 46.2227 94.8614 46.2227 78.2639C46.2227 61.6664 59.4395 48.2114 75.7432 48.2114C92.047 48.2114 105.264 61.6664 105.264 78.2639ZM54.3021 78.2639C54.3021 90.3189 63.9016 100.091 75.7432 100.091C87.5848 100.091 97.1843 90.3189 97.1843 78.2639C97.1843 66.2089 87.5848 56.4364 75.7432 56.4364C63.9016 56.4364 54.3021 66.2089 54.3021 78.2639Z"/>
</mask>
<path d="M105.264 78.2639C105.264 94.8614 92.047 108.316 75.7432 108.316C59.4395 108.316 46.2227 94.8614 46.2227 78.2639C46.2227 61.6664 59.4395 48.2114 75.7432 48.2114C92.047 48.2114 105.264 61.6664 105.264 78.2639ZM54.3021 78.2639C54.3021 90.3189 63.9016 100.091 75.7432 100.091C87.5848 100.091 97.1843 90.3189 97.1843 78.2639C97.1843 66.2089 87.5848 56.4364 75.7432 56.4364C63.9016 56.4364 54.3021 66.2089 54.3021 78.2639Z" fill="#2DC5B3" fill-opacity="0.22"/>
<path d="M105.264 78.2639C105.264 94.8614 92.047 108.316 75.7432 108.316C59.4395 108.316 46.2227 94.8614 46.2227 78.2639C46.2227 61.6664 59.4395 48.2114 75.7432 48.2114C92.047 48.2114 105.264 61.6664 105.264 78.2639ZM54.3021 78.2639C54.3021 90.3189 63.9016 100.091 75.7432 100.091C87.5848 100.091 97.1843 90.3189 97.1843 78.2639C97.1843 66.2089 87.5848 56.4364 75.7432 56.4364C63.9016 56.4364 54.3021 66.2089 54.3021 78.2639Z" stroke="#1BA19A" stroke-width="8.57729" mask="url(#path-9-outside-1_86_879)"/>
<path d="M145.688 87.8382C145.688 97.6793 137.829 105.657 128.135 105.657C118.441 105.657 110.582 97.6793 110.582 87.8382C110.582 77.9972 118.441 70.0195 128.135 70.0195C137.829 70.0195 145.688 77.9972 145.688 87.8382ZM115.188 87.8382C115.188 95.097 120.984 100.981 128.135 100.981C135.285 100.981 141.082 95.097 141.082 87.8382C141.082 80.5795 135.285 74.6951 128.135 74.6951C120.984 74.6951 115.188 80.5795 115.188 87.8382Z" fill="#C5C5C5"/>
<path d="M87.4443 115.522C91.4336 119.423 102.604 125.416 115.369 118.182" stroke="#1C9183" stroke-width="4.25522" stroke-linecap="round"/>
<path d="M1.90318 107.147C7.64772 86.5088 21.1403 91.1009 27.1685 95.9766C47.3808 105.551 39.0725 119.866 31.0313 123.082C19.2372 126.835 -3.84136 127.784 1.90318 107.147Z" fill="#D9D9D9" stroke="#878787" stroke-opacity="0.17"/>
<path d="M102.866 81.7787C105.547 80.2812 111.443 78.5114 113.588 83.4123" stroke="black" stroke-width="4.25522" stroke-linecap="round"/>
</svg>
