<svg width="48" height="48" viewBox="0 0 48 48" fill="none" xmlns="http://www.w3.org/2000/svg">
<path d="M26.5983 6.2959L43.8663 36.2039C44.1297 36.66 44.2683 37.1773 44.2683 37.7039C44.2683 38.2305 44.1297 38.7478 43.8664 39.2039C43.6031 39.6599 43.2244 40.0386 42.7683 40.3019C42.3123 40.5653 41.795 40.7039 41.2683 40.7039H6.73235C6.20574 40.7039 5.68842 40.5653 5.23237 40.3019C4.77633 40.0386 4.39762 39.6599 4.13433 39.2039C3.87103 38.7478 3.73242 38.2305 3.73242 37.7039C3.73243 37.1773 3.87104 36.66 4.13435 36.2039L21.4023 6.2959C22.5563 4.2959 25.4423 4.2959 26.5983 6.2959ZM24.0003 9.7959L8.46435 36.7039H39.5363L24.0003 9.7959ZM24.0003 29.9999C24.5308 29.9999 25.0395 30.2106 25.4146 30.5857C25.7896 30.9608 26.0003 31.4695 26.0003 31.9999C26.0003 32.5303 25.7896 33.039 25.4146 33.4141C25.0395 33.7892 24.5308 33.9999 24.0003 33.9999C23.4699 33.9999 22.9612 33.7892 22.5861 33.4141C22.2111 33.039 22.0003 32.5303 22.0003 31.9999C22.0003 31.4695 22.2111 30.9608 22.5861 30.5857C22.9612 30.2106 23.4699 29.9999 24.0003 29.9999ZM24.0003 15.9999C24.5308 15.9999 25.0395 16.2106 25.4146 16.5857C25.7896 16.9608 26.0003 17.4695 26.0003 17.9999V25.9999C26.0003 26.5303 25.7896 27.039 25.4146 27.4141C25.0395 27.7892 24.5308 27.9999 24.0003 27.9999C23.4699 27.9999 22.9612 27.7892 22.5861 27.4141C22.2111 27.039 22.0003 26.5303 22.0003 25.9999V17.9999C22.0003 17.4695 22.2111 16.9608 22.5861 16.5857C22.9612 16.2106 23.4699 15.9999 24.0003 15.9999Z" fill="#80DED3"/>
</svg>
