<svg width="24" height="32" viewBox="0 0 24 32" fill="white" xmlns="http://www.w3.org/2000/svg">
<path d="M12.0001 0.166748C5.76774 0.166748 0.719742 5.21755 0.719742 11.4471C0.715672 13.8802 1.50206 16.2488 2.96054 18.1963L10.1961 30.7291C10.2381 30.8099 10.2801 30.8903 10.3317 30.9643L10.3477 30.9919L10.3521 30.9895C10.5404 31.2521 10.7888 31.4657 11.0766 31.6126C11.3643 31.7595 11.6831 31.8354 12.0061 31.8339C12.6285 31.8339 13.1709 31.5507 13.5441 31.1143L13.5629 31.1251L13.6345 31.0011C13.7401 30.8587 13.8337 30.7067 13.9013 30.5391L20.9901 18.2599C22.4795 16.3013 23.2842 13.9077 23.2805 11.4471C23.2805 5.21755 18.2325 0.166748 12.0001 0.166748ZM11.8885 17.1659C8.81774 17.1659 6.33054 14.6775 6.33054 11.6079C6.33054 8.53835 8.81774 6.04995 11.8885 6.04995C14.9593 6.04995 17.4465 8.53875 17.4465 11.6079C17.4465 14.6771 14.9593 17.1659 11.8885 17.1659Z" fill="#1BA19A"/>
</svg>
